<?xml version="1.0" encoding="utf-8"?>
<!-- Generator: Adobe Illustrator 24.1.2, SVG Export Plug-In . SVG Version: 6.00 Build 0)  -->
<svg version="1.1" id="Capa_1" xmlns="http://www.w3.org/2000/svg" xmlns:xlink="http://www.w3.org/1999/xlink" x="0px" y="0px"
	 viewBox="0 0 1920 493.7" style="enable-background:new 0 0 1920 493.7;" xml:space="preserve">
<style type="text/css">
	.st0{opacity:8.000000e-02;fill:#FFFFFF;}
</style>
<path class="st0" d="M-308.2,564.9c18.8-154.8,228.3-243.6,364.6-270.1c285.8-55.5,359.3,141.6,621,100.9
	c244.6-37.9,243.5-220,547.5-298.3c91.8-23.7,307-79.2,509.5,40.1c241.5,142.2,352.2,452.5,304.5,496.3
	c-31.5,28.9-112.2-78.1-268.3-107.7c-197.5-37.4-294,91.1-508.6,172.4C805,871.5,624,522.9,152.7,703
	C19.6,753.9-113,837.8-215.9,772.7C-281.5,731.2-317.3,640-308.2,564.9z"/>
</svg>
