<?xml version="1.0" encoding="utf-8"?>
<!-- Generator: Adobe Illustrator 24.1.2, SVG Export Plug-In . SVG Version: 6.00 Build 0)  -->
<svg version="1.1" id="Capa_1" xmlns="http://www.w3.org/2000/svg" xmlns:xlink="http://www.w3.org/1999/xlink" x="0px" y="0px"
	 viewBox="0 0 1920 604" style="enable-background:new 0 0 1920 604;" xml:space="preserve">
<style type="text/css">
	.st0{fill:url(#SVGID_1_);}
</style>
<linearGradient id="SVGID_1_" gradientUnits="userSpaceOnUse" x1="1082.6149" y1="898.6751" x2="931.5623" y2="-920.7279">
	<stop  offset="0.2255" style="stop-color:#FFFFFF;stop-opacity:0"/>
	<stop  offset="0.2696" style="stop-color:#F7EBF2;stop-opacity:0.1078"/>
	<stop  offset="0.3598" style="stop-color:#E4B8D2;stop-opacity:0.3282"/>
	<stop  offset="0.4883" style="stop-color:#C5669E;stop-opacity:0.6424"/>
	<stop  offset="0.6346" style="stop-color:#9E005D"/>
</linearGradient>
<path class="st0" d="M-103,345c43.9-143.4,265.2-194.4,404-198c291-7.6,331.2,190.3,596,193c247.5,2.6,276.3-169.7,589-196
	c94.4-8,315.8-26.6,496,118c214.9,172.4,273.2,483.1,219,517c-35.8,22.4-97.9-91.5-247-144c-188.7-66.4-305,39.9-530,83
	C944.8,809.8,823.5,451.8,329,548c-139.6,27.2-284.2,85.7-375,8C-103.9,506.4-124.3,414.6-103,345z"/>
</svg>
