<?xml version="1.0" encoding="utf-8"?>
<!-- Generator: Adobe Illustrator 24.1.2, SVG Export Plug-In . SVG Version: 6.00 Build 0)  -->
<svg version="1.1" id="Capa_1" xmlns="http://www.w3.org/2000/svg" xmlns:xlink="http://www.w3.org/1999/xlink" x="0px" y="0px"
	 viewBox="0 0 1920 604" style="enable-background:new 0 0 1920 604;" xml:space="preserve">
<style type="text/css">
	.st0{fill:url(#SVGID_1_);}
</style>
<linearGradient id="SVGID_1_" gradientUnits="userSpaceOnUse" x1="1101.7405" y1="792.8735" x2="950.6879" y2="-1026.5295">
	<stop  offset="0.1241" style="stop-color:#FFFFFF;stop-opacity:0"/>
	<stop  offset="0.216" style="stop-color:#E9E9E9;stop-opacity:0.1328"/>
	<stop  offset="0.3876" style="stop-color:#C7C7C7;stop-opacity:0.3806"/>
	<stop  offset="0.5497" style="stop-color:#ADADAD;stop-opacity:0.6147"/>
	<stop  offset="0.6971" style="stop-color:#9E9E9E;stop-opacity:0.8276"/>
	<stop  offset="0.8164" style="stop-color:#999999"/>
</linearGradient>
<path class="st0" d="M-77,322c43.9-143.4,265.2-194.4,404-198c291-7.6,331.2,190.3,596,193c247.5,2.6,276.3-169.7,589-196
	c94.4-8,315.8-26.6,496,118c214.9,172.4,273.2,483.1,219,517c-35.8,22.4-97.9-91.5-247-144c-188.7-66.4-305,39.9-530,83
	C970.8,786.8,849.5,428.8,355,525c-139.6,27.2-284.2,85.7-375,8C-77.9,483.4-98.3,391.6-77,322z"/>
</svg>
