<svg id="Capa_1" data-name="Capa 1" xmlns="http://www.w3.org/2000/svg" xmlns:xlink="http://www.w3.org/1999/xlink" viewBox="0 0 1859 920"><defs><style>.cls-1{fill:url(#Degradado_sin_nombre_14);}.cls-2{fill:url(#Degradado_sin_nombre_14-2);}</style><linearGradient id="Degradado_sin_nombre_14" x1="50.19" y1="1090.55" x2="1857.33" y2="125.98" gradientTransform="matrix(1, -0.06, 0.06, 1.05, -42.9, 3.34)" gradientUnits="userSpaceOnUse"><stop offset="0.21" stop-color="#21d4fd"/><stop offset="0.41" stop-color="#4ca0fe"/><stop offset="0.69" stop-color="#855cfe"/><stop offset="0.9" stop-color="#a931ff"/><stop offset="1" stop-color="#b721ff"/></linearGradient><linearGradient id="Degradado_sin_nombre_14-2" x1="224.93" y1="1444.98" x2="1804.77" y2="601.74" gradientTransform="matrix(1, 0, 0, 1, 0, 0)" xlink:href="#Degradado_sin_nombre_14"/></defs><path class="cls-1" d="M-105.61,224.41C142,362.67,311.78,360.77,428.34,320.07,614.41,255.09,639.76,98,805.06,84.73c208.78-16.72,268.8,214.46,469,186.57,163-22.7,222.42-189.75,390.68-166.52,68.53,9.47,116,45.1,134.32,58.87,209.83,157.56,260,692.38,41.19,890.92-234.08,212.45-641-82.1-1239-30.38-175.16,15.14-352.18,8.22-526.51,31.11-120.3,15.79-161.74,27.42-202.59,2.85C-192.65,1019.15-278.82,875.23-105.61,224.41Z"/><path class="cls-2" d="M89.31,796c72.46-55.27,185.52-141.53,325.55-131.45,219.25,15.78,272.25,251,412.35,225.35,152.48-27.93,130.85-314.11,335-399.57,130.17-54.5,312.12-10.62,397.26,101.19,69,90.7,32.92,171.61,114.17,236.82,75.71,60.77,142.93,19.29,223.64,99.11,12.52,12.39,53.64,54.1,69.82,121,21.55,89.11-12.43,176.16-31.14,206.57-114.39,186-580.17-246.43-1201.2-145-42.94,7-275.22,6.41-739.79,5.21-27.34-.07-88.32-1-104.74-37.56C-139.1,1012.39-9.4,871.32,89.31,796Z"/></svg>